<?xml version="1.0" standalone="no"?>
<!DOCTYPE svg PUBLIC "-//W3C//DTD SVG 20010904//EN"
 "http://www.w3.org/TR/2001/REC-SVG-20010904/DTD/svg10.dtd">
<svg version="1.0" xmlns="http://www.w3.org/2000/svg"
 width="500.000000pt" height="500.000000pt" viewBox="0 0 500.000000 500.000000"
 preserveAspectRatio="xMidYMid meet">
<metadata>
Created by potrace 1.11, written by Peter Selinger 2001-2013
</metadata>
<g transform="translate(0.000000,500.000000) scale(0.100000,-0.100000)"
fill="#000000" stroke="none">
<path d="M1911 4489 c-44 -17 -81 -51 -101 -89 -19 -38 -20 -62 -20 -762 0
-439 -4 -749 -10 -788 -15 -94 -70 -201 -140 -269 -252 -248 -659 -156 -790
179 -38 97 -94 140 -185 140 -66 0 -110 -17 -147 -56 -60 -64 -64 -151 -15
-264 203 -464 741 -661 1192 -437 226 112 397 327 455 572 20 80 20 114 18
877 l-3 795 -29 37 c-48 64 -153 94 -225 65z"/>
<path d="M2620 3914 c-162 -70 -160 -301 2 -369 33 -13 128 -15 740 -15 663 0
705 1 743 19 77 36 115 95 115 181 0 86 -38 145 -115 181 -38 18 -80 19 -745
18 -607 0 -710 -2 -740 -15z"/>
<path d="M2637 3200 c-47 -14 -98 -60 -119 -108 -41 -93 -12 -192 74 -254 l33
-23 924 -3 924 -2 45 21 c29 15 54 37 74 68 27 42 29 52 26 118 -3 62 -7 76
-34 110 -17 21 -46 47 -65 58 -33 20 -54 20 -944 22 -500 1 -923 -2 -938 -7z"/>
<path d="M2652 2480 c-167 -40 -208 -270 -64 -361 l46 -29 923 0 c994 0 949
-2 1007 49 55 49 74 167 37 239 -22 42 -42 62 -91 88 -33 18 -76 19 -930 21
-492 0 -910 -2 -928 -7z"/>
<path d="M745 1744 c-146 -76 -153 -281 -12 -356 l42 -23 1740 0 1740 0 42 23
c92 49 129 169 81 261 -13 25 -40 59 -61 75 l-39 31 -1751 2 c-1572 3 -1755 1
-1782 -13z"/>
<path d="M1389 1017 c-140 -74 -139 -280 3 -351 l52 -26 1056 0 1056 0 52 26
c142 71 143 277 3 351 l-44 23 -1067 0 -1067 0 -44 -23z"/>
</g>
</svg>
