<?xml version="1.0" standalone="no"?>
<!DOCTYPE svg PUBLIC "-//W3C//DTD SVG 20010904//EN"
 "http://www.w3.org/TR/2001/REC-SVG-20010904/DTD/svg10.dtd">
<svg version="1.0" xmlns="http://www.w3.org/2000/svg"
 width="500.000000pt" height="500.000000pt" viewBox="0 0 500.000000 500.000000"
 preserveAspectRatio="xMidYMid meet">
<metadata>
Created by potrace 1.11, written by Peter Selinger 2001-2013
</metadata>
<g transform="translate(0.000000,500.000000) scale(0.100000,-0.100000)"
fill="#000000" stroke="none">
<path d="M0 2500 l0 -2500 2500 0 2500 0 0 2500 0 2500 -2500 0 -2500 0 0
-2500z m1340 2112 c18 -14 24 -32 28 -75 9 -111 -18 -159 -81 -144 -33 9 -47
46 -47 123 0 56 4 68 25 89 29 30 45 31 75 7z m7 -752 c8 -16 13 -71 13 -158
0 -128 -1 -134 -25 -157 -29 -30 -58 -32 -85 -5 -18 18 -20 33 -20 167 0 124
3 149 17 165 25 28 84 21 100 -12z m2943 10 c24 -24 25 -47 3 -72 -15 -17 -66
-18 -1199 -18 -1062 0 -1184 2 -1198 16 -21 20 -20 53 1 76 15 17 66 18 1195
18 1165 0 1178 0 1198 -20z m-2946 -492 c13 -18 16 -51 16 -156 0 -128 -1
-134 -25 -157 -13 -14 -29 -25 -35 -25 -16 0 -53 21 -62 34 -4 6 -8 74 -8 150
0 116 3 143 17 158 23 26 78 24 97 -4z m3141 -114 c27 -11 38 -53 20 -80 l-15
-24 -1290 0 c-1158 0 -1290 2 -1304 16 -21 20 -20 53 1 76 15 17 69 18 1294
18 702 0 1285 -3 1294 -6z m-3142 -366 c14 -17 17 -41 17 -153 0 -119 -2 -135
-21 -159 -25 -31 -61 -34 -89 -6 -18 18 -20 33 -20 163 0 78 4 147 8 153 24
37 74 38 105 2z m3009 -265 c22 -20 23 -56 2 -77 -14 -14 -139 -16 -1229 -16
-1090 0 -1215 2 -1229 16 -21 20 -20 53 1 76 15 17 67 18 1226 18 1112 0 1212
-1 1229 -17z m-3012 -209 c12 -11 16 -46 18 -152 3 -128 2 -139 -18 -165 -26
-32 -62 -35 -90 -7 -18 18 -20 33 -20 163 0 78 4 147 8 153 23 34 71 37 102 8z
m3145 -400 c27 -11 38 -53 20 -80 l-15 -24 -1290 0 c-1158 0 -1290 2 -1304 16
-21 20 -20 53 1 76 15 17 69 18 1294 18 702 0 1285 -3 1294 -6z m-3149 -78
c17 -13 19 -29 22 -155 3 -139 3 -141 -22 -166 -30 -30 -59 -32 -86 -5 -18 18
-20 33 -20 162 0 118 3 145 17 160 19 22 62 23 89 4z m-5 -485 c23 -18 24 -26
27 -153 3 -147 -5 -176 -51 -192 -22 -8 -31 -6 -52 14 -24 23 -25 27 -25 167
0 130 2 145 20 163 25 25 51 25 81 1z m3069 -71 c24 -24 25 -47 3 -72 -15 -17
-67 -18 -1254 -18 -1112 0 -1239 2 -1253 16 -21 20 -20 53 1 76 15 17 67 18
1250 18 1220 0 1233 0 1253 -20z m-3059 -417 c35 -41 -3 -196 -67 -276 -37
-47 -84 -52 -110 -11 -17 25 -16 28 24 106 31 58 42 92 42 123 0 26 6 50 16
59 20 21 78 20 95 -1z m-751 -12 c5 -11 10 -35 10 -53 1 -44 22 -100 55 -148
34 -49 28 -83 -16 -106 -30 -15 -33 -15 -58 3 -42 30 -92 141 -98 216 -7 84 5
107 57 107 29 0 42 -5 50 -19z m3055 -177 c27 -11 38 -53 20 -80 l-15 -24
-870 0 c-776 0 -870 2 -884 16 -21 20 -20 53 1 76 15 17 56 18 874 18 471 0
865 -3 874 -6z m-2589 -179 c17 -17 24 -34 22 -53 -7 -61 -168 -101 -281 -68
-59 17 -74 36 -63 81 9 36 35 46 97 36 54 -9 112 -3 159 17 36 15 38 15 66
-13z"/>
</g>
</svg>
