<?xml version="1.0" encoding="utf-8"?>
<!-- Generator: Adobe Illustrator 16.0.0, SVG Export Plug-In . SVG Version: 6.00 Build 0)  -->
<!DOCTYPE svg PUBLIC "-//W3C//DTD SVG 1.1//EN" "http://www.w3.org/Graphics/SVG/1.1/DTD/svg11.dtd">
<svg version="1.1" id="Layer_1" xmlns="http://www.w3.org/2000/svg" xmlns:xlink="http://www.w3.org/1999/xlink" x="0px" y="0px"
	 width="493px" height="273.266px" viewBox="0 0 493 273.266" enable-background="new 0 0 493 273.266" xml:space="preserve">
<g>
	<path d="M3.065,266.612h0.512c2.045,0,3.324,1.283,3.324,3.593c0,1.54-1.278,3.079-3.068,3.079c-0.255,0-0.255,0-0.767,0
		c-1.534,0-3.068-1.283-3.068-3.079C-0.003,268.152,1.531,266.612,3.065,266.612z M13.037,262.507
		c2.045-2.566,3.324-5.646,3.324-8.725v-0.77c0-2.31,1.534-3.336,3.068-3.336c2.301,0,3.58,1.026,3.58,3.336v0.77
		c0,4.875-2.301,9.751-5.369,13.087c-0.511,0.77-1.534,1.026-2.301,1.026s-1.534-0.256-2.045-1.026
		C11.758,266.099,11.758,263.79,13.037,262.507z M16.36,94.686c0-2.053,1.534-3.335,3.068-3.335c2.301,0,3.58,1.283,3.58,3.335
		v13.601c0,1.54-1.278,3.079-3.58,3.079c-1.534,0-3.068-1.54-3.068-3.079V94.686z M16.36,121.116c0-1.796,1.534-3.079,3.068-3.079
		c2.301,0,3.58,1.283,3.58,3.079v13.344c0,1.54-1.278,3.079-3.58,3.079c-1.534,0-3.068-1.54-3.068-3.079V121.116z M16.36,147.29
		c0-1.796,1.534-3.079,3.068-3.079c2.301,0,3.58,1.283,3.58,3.079v13.344c0,1.54-1.278,3.336-3.58,3.336
		c-1.534,0-3.068-1.796-3.068-3.336V147.29z M16.36,173.721c0-2.053,1.534-3.336,3.068-3.336c2.301,0,3.58,1.283,3.58,3.336v13.344
		c0,1.54-1.278,3.079-3.58,3.079c-1.534,0-3.068-1.54-3.068-3.079V173.721z M16.36,199.895c0-1.796,1.534-3.079,3.068-3.079
		c2.301,0,3.58,1.283,3.58,3.079v13.344c0,1.54-1.278,3.079-3.58,3.079c-1.534,0-3.068-1.54-3.068-3.079V199.895z M16.36,226.838
		c0-2.31,1.534-3.592,3.068-3.592c2.301,0,3.58,1.283,3.58,3.592v12.831c0,1.54-1.278,3.336-3.58,3.336
		c-1.534,0-3.068-1.796-3.068-3.336V226.838z M17.127,54.398c0-1.796,1.534-3.079,3.068-3.079c2.301,0,3.324,1.283,3.324,3.079
		v6.415c0,1.54-1.022,3.336-3.324,3.336c-1.534,0-3.068-1.796-3.068-3.336V54.398z"/>
	<path d="M88.713,95.456c0-1.54,1.278-3.336,3.324-3.336c1.534,0,3.324,1.796,3.324,3.336v13.344c0,2.053-1.79,3.336-3.324,3.336
		c-2.045,0-3.324-1.283-3.324-3.336V95.456z M88.713,122.143c0-1.796,1.278-3.592,3.324-3.592c1.534,0,3.324,1.796,3.324,3.592
		v13.087c0,2.053-1.79,3.336-3.324,3.336c-2.045,0-3.324-1.283-3.324-3.336V122.143z M88.713,156.271v-0.257v-7.441
		c0-1.796,1.278-3.336,3.324-3.336h0.512c0.255-0.513,0.767-1.283,1.022-2.053c0.511-1.796,2.301-2.566,4.091-1.796
		c1.79,0.513,2.557,2.566,2.045,4.362c-2.557,5.646-3.835,9.495-4.347,11.034v5.132c0,1.796-1.79,3.079-3.324,3.079
		c-2.045,0-3.324-1.283-3.324-3.079V156.271z M88.713,175.004c0-1.796,1.278-3.336,3.324-3.336c1.534,0,3.324,1.54,3.324,3.336
		v13.343c0,1.796-1.79,3.336-3.324,3.336c-2.045,0-3.324-1.54-3.324-3.336V175.004z M88.713,201.691
		c0-1.796,1.278-3.592,3.324-3.592c1.534,0,3.324,1.796,3.324,3.592v13.087c0,2.053-1.79,3.336-3.324,3.336
		c-2.045,0-3.324-1.283-3.324-3.336V201.691z M99.452,131.124c2.301-4.106,4.603-8.211,7.415-11.804
		c1.023-1.54,3.068-1.796,4.603-0.77c1.278,1.283,1.79,3.079,0.767,4.875c-2.557,3.592-4.858,7.185-6.903,10.521
		c-0.767,1.283-1.534,2.053-3.068,2.053c-0.511,0-1.022-0.513-1.534-0.77C98.94,134.716,98.685,132.407,99.452,131.124z
		 M115.815,108.799c3.324-2.823,7.159-5.902,10.994-8.725c1.534-0.513,3.58-0.257,4.602,1.54c1.023,1.283,0.256,3.592-1.022,4.362
		c-3.58,2.053-6.903,4.875-9.971,7.955c-0.512,0.513-1.79,0.77-2.301,0.77c-1.022,0-1.534-0.257-2.301-0.77
		C114.537,112.392,114.537,110.082,115.815,108.799z M139.593,94.686c4.347-1.283,8.949-2.053,13.807-2.566
		c1.79,0,3.324,1.796,3.324,3.336c0,2.053-1.278,3.336-3.324,3.336c-4.091,0.513-8.182,1.026-12.017,2.053
		c0,0-0.511,0.257-0.767,0.257c-1.534,0-3.068-1.026-3.324-2.566C136.781,96.995,137.548,95.199,139.593,94.686z"/>
	<path d="M200.952,95.712c0-1.796,1.278-3.336,3.324-3.336c1.534,0,3.068,1.54,3.068,3.336v12.83c0,2.053-1.534,3.336-3.068,3.336
		c-2.045,0-3.324-1.283-3.324-3.336V95.712z M204.275,140.619c-2.045,0-3.324-1.54-3.068-3.593V136
		c-0.256-0.513-0.256-1.026-0.256-1.796v-12.83c0-1.54,1.278-3.08,3.324-3.08c1.534,0,3.068,1.54,3.068,3.08v0.513
		c0.255,0,0.767,0,1.278,0.256c1.534,0.513,2.557,2.31,2.045,4.106c-1.79,3.849-2.813,7.698-2.813,11.547
		c-0.511,2.053-1.79,2.823-3.324,2.823H204.275z M200.952,150.37v-0.513v-2.566c0-1.796,1.278-3.336,3.324-3.336
		c1.534,0,3.068,1.54,3.068,3.336v16.167c0,1.796-1.534,3.079-3.068,3.079c-2.045,0-3.324-1.283-3.324-3.079V150.37z
		 M200.952,176.287v-0.513v-2.822c0-1.54,1.278-3.08,3.324-3.08c1.534,0,3.068,1.54,3.068,3.08v13.087v0.77v2.31
		c0,1.796-1.534,3.079-3.068,3.079c-2.045,0-3.324-1.283-3.324-3.079V176.287z M200.952,212.468v-0.77v-9.751v-0.514v-2.822
		c0-1.54,1.278-3.08,3.324-3.08c1.534,0,3.068,1.54,3.068,3.08v2.822v0.514v9.751v0.77v2.31c0,2.053-1.534,3.336-3.068,3.336
		c-2.045,0-3.324-1.283-3.324-3.336V212.468z M211.435,111.878c2.813-3.336,6.136-6.672,9.716-9.495
		c1.278-1.026,3.579-0.77,4.602,0.513c1.022,1.796,0.511,3.593-0.767,4.619c-3.068,2.566-5.881,5.132-8.693,8.468
		c-0.512,0.77-1.534,1.283-2.557,1.283c-0.511,0-1.278-0.513-1.79-0.513C210.667,115.471,210.156,113.418,211.435,111.878z
		 M232.911,95.969c4.347-1.54,8.949-2.823,13.551-3.336c1.79-0.256,3.324,1.026,3.58,3.08c0,1.54-1.278,3.079-2.813,3.592
		c-4.346,0-7.926,1.283-12.017,2.31c-0.256,0.513-0.511,0.513-0.767,0.513c-1.534,0-2.813-0.77-2.813-2.053
		C230.866,98.021,231.633,96.482,232.911,95.969z M258.99,99.305c-1.79,0-2.813-1.796-2.301-3.336c0-2.053,1.79-2.823,3.324-2.566
		c4.858,0.513,9.205,2.31,13.295,4.105c1.534,0.513,2.045,2.566,1.278,4.106c-0.511,1.283-1.79,2.053-3.068,2.053
		c-0.256,0-1.023,0-1.023-0.256C266.916,101.614,262.825,100.588,258.99,99.305z M280.211,109.826
		c-1.278-1.026-1.534-2.823-0.256-4.619c1.278-1.026,3.068-1.026,4.602-0.256c3.324,3.336,6.392,6.928,8.949,10.521
		c0.767,1.283,0.767,3.593-1.022,4.619c-0.511,0.257-1.023,0.257-1.534,0.257c-1.534,0-2.301-0.257-3.068-1.283
		C285.836,115.471,283.024,112.648,280.211,109.826z M292.995,129.841c-0.511-1.796,0.511-3.592,2.557-3.849
		c1.534-0.77,3.324,0.257,3.58,1.796c1.278,4.619,2.301,9.238,2.301,13.6c0,2.053-1.278,3.336-2.813,3.593h-0.256
		c-1.79,0-3.324-1.54-3.324-3.08C295.041,137.539,294.273,133.69,292.995,129.841z M295.041,154.475
		c0-1.796,1.534-3.079,3.324-3.079c1.79,0,3.068,1.283,3.068,3.079v13.087c0,1.54-1.278,3.08-3.068,3.08
		c-1.79,0-3.324-1.54-3.324-3.08V154.475z M295.041,180.393c0-2.053,1.534-3.336,3.324-3.336c1.79,0,3.068,1.283,3.068,3.336v12.83
		c0,1.796-1.278,3.336-3.068,3.336c-1.79,0-3.324-1.54-3.324-3.336V180.393z M295.041,206.31c0-2.053,1.534-3.336,3.324-3.336
		c1.79,0,3.068,1.283,3.068,3.336v8.468c0,2.053-1.278,3.336-3.068,3.336c-1.79,0-3.324-1.283-3.324-3.336V206.31z"/>
	<path d="M359.466,41.825c0-2.053,1.278-3.336,3.324-3.336c2.045,0,3.323,1.283,3.323,3.336v13.344c0,1.54-1.278,3.336-3.323,3.336
		c-2.046,0-3.324-1.796-3.324-3.336V41.825z M359.466,68.512c0-2.053,1.278-3.336,3.324-3.336c2.045,0,3.323,1.283,3.323,3.336
		v13.344c0,1.54-1.278,3.079-3.323,3.079c-2.046,0-3.324-1.54-3.324-3.079V68.512z M359.466,94.942c0-1.796,1.278-3.336,3.324-3.336
		c2.045,0,3.323,1.54,3.323,3.336v13.344c0,1.796-1.278,3.336-3.323,3.336c-2.046,0-3.324-1.54-3.324-3.336V94.942z
		 M359.466,121.629c0-2.053,1.278-3.336,3.324-3.336c2.045,0,3.323,1.283,3.323,3.336v13.344c0,1.54-1.278,3.336-3.323,3.336
		c-2.046,0-3.324-1.796-3.324-3.336V121.629z M359.466,148.316c0-2.053,1.278-3.335,3.324-3.335c2.045,0,3.323,1.283,3.323,3.335
		v13.344c0,1.54-1.278,3.336-3.323,3.336c-2.046,0-3.324-1.796-3.324-3.336V148.316z M359.466,174.747
		c0-1.796,1.278-3.079,3.324-3.079c2.045,0,3.323,1.283,3.323,3.079v13.344c0,1.796-1.278,3.336-3.323,3.336
		c-2.046,0-3.324-1.54-3.324-3.336V174.747z M359.466,201.434c0-2.053,1.278-3.335,3.324-3.335c2.045,0,3.323,1.283,3.323,3.335
		v13.344c0,1.796-1.278,3.336-3.323,3.336c-2.046,0-3.324-1.54-3.324-3.336V201.434z"/>
	<path d="M421.337,95.456c0-1.54,1.278-3.336,3.323-3.336c1.534,0,3.324,1.796,3.324,3.336v13.344c0,2.053-1.79,3.336-3.324,3.336
		c-2.045,0-3.323-1.283-3.323-3.336V95.456z M421.337,122.143c0-1.796,1.278-3.592,3.323-3.592c1.534,0,3.324,1.796,3.324,3.592
		v13.087c0,2.053-1.79,3.336-3.324,3.336c-2.045,0-3.323-1.283-3.323-3.336V122.143z M421.337,156.271v-0.257v-7.441
		c0-1.796,1.278-3.336,3.323-3.336h0.512c0.256-0.513,0.767-1.283,1.022-2.053c0.512-1.796,2.301-2.566,4.091-1.796
		c1.79,0.513,2.557,2.566,2.045,4.362c-2.557,5.646-3.835,9.495-4.346,11.034v5.132c0,1.796-1.79,3.079-3.324,3.079
		c-2.045,0-3.323-1.283-3.323-3.079V156.271z M421.337,175.004c0-1.796,1.278-3.336,3.323-3.336c1.534,0,3.324,1.54,3.324,3.336
		v13.343c0,1.796-1.79,3.336-3.324,3.336c-2.045,0-3.323-1.54-3.323-3.336V175.004z M421.337,201.691
		c0-1.796,1.278-3.592,3.323-3.592c1.534,0,3.324,1.796,3.324,3.592v13.087c0,2.053-1.79,3.336-3.324,3.336
		c-2.045,0-3.323-1.283-3.323-3.336V201.691z M432.075,131.124c2.301-4.106,4.602-8.211,7.414-11.804
		c1.022-1.54,3.068-1.796,4.603-0.77c1.278,1.283,1.79,3.079,0.767,4.875c-2.557,3.592-4.857,7.185-6.903,10.521
		c-0.767,1.283-1.533,2.053-3.067,2.053c-0.512,0-1.023-0.513-1.534-0.77C431.563,134.716,431.308,132.407,432.075,131.124z
		 M448.438,108.799c3.323-2.823,7.158-5.902,10.994-8.725c1.534-0.513,3.579-0.257,4.602,1.54c1.022,1.283,0.256,3.592-1.022,4.362
		c-3.579,2.053-6.903,4.875-9.972,7.955c-0.511,0.513-1.789,0.77-2.301,0.77c-1.022,0-1.534-0.257-2.301-0.77
		C447.16,112.392,447.16,110.082,448.438,108.799z M472.216,94.686c4.347-1.283,8.949-2.053,13.807-2.566
		c1.79,0,3.324,1.796,3.324,3.336c0,2.053-1.278,3.336-3.324,3.336c-4.091,0.513-8.182,1.026-12.017,2.053
		c0,0-0.512,0.257-0.768,0.257c-1.533,0-3.067-1.026-3.323-2.566C469.403,96.995,470.171,95.199,472.216,94.686z"/>
</g>
</svg>
