<?xml version="1.0" encoding="utf-8"?>
<!-- Generator: Adobe Illustrator 16.0.0, SVG Export Plug-In . SVG Version: 6.00 Build 0)  -->
<!DOCTYPE svg PUBLIC "-//W3C//DTD SVG 1.1//EN" "http://www.w3.org/Graphics/SVG/1.1/DTD/svg11.dtd">
<svg version="1.1" id="Layer_1" xmlns="http://www.w3.org/2000/svg" xmlns:xlink="http://www.w3.org/1999/xlink" x="0px" y="0px"
	 width="212.565px" height="184.493px" viewBox="0 0 212.565 184.493" enable-background="new 0 0 212.565 184.493"
	 xml:space="preserve">
<g>
	<g>
		<path d="M152.531,40H20C8.954,40,0,31.046,0,20S8.954,0,20,0h132.531c11.046,0,20,8.954,20,20S163.577,40,152.531,40z"/>
	</g>
	<g>
		<path d="M192.566,184.494H20c-11.046,0-20-8.954-20-20s8.954-20,20-20h172.566c11.046,0,20,8.954,20,20
			S203.612,184.494,192.566,184.494z"/>
	</g>
	<g>
		<path d="M192.566,112.247H20c-11.046,0-20-8.954-20-20s8.954-20,20-20h172.566c11.046,0,20,8.954,20,20
			S203.612,112.247,192.566,112.247z"/>
	</g>
</g>
</svg>
