<?xml version="1.0" encoding="utf-8"?>
<!-- Generator: Adobe Illustrator 16.0.0, SVG Export Plug-In . SVG Version: 6.00 Build 0)  -->
<!DOCTYPE svg PUBLIC "-//W3C//DTD SVG 1.1//EN" "http://www.w3.org/Graphics/SVG/1.1/DTD/svg11.dtd">
<svg version="1.1" xmlns="http://www.w3.org/2000/svg" xmlns:xlink="http://www.w3.org/1999/xlink" x="0px" y="0px" width="500px"
	 height="500px" viewBox="0 0 500 500" enable-background="new 0 0 500 500" xml:space="preserve">
<g id="Layer_1">
</g>
<g id="Layer_3">
	<g>
		<g>
			<circle fill="#FFFFFF" cx="250" cy="250" r="250"/>
		</g>
		<g>
			<g>
				<path d="M84.462,222.896c6.3,19.25,24.5,33.25,45.851,33.25c26.6,0,48.301-21.7,48.301-47.951V69.243
					c0-10.85,8.75-19.25,19.6-19.25c10.5,0,19.251,8.4,19.251,19.25v138.952c0,47.951-39.201,86.802-87.151,86.802
					c-38.501,0-71.402-25.2-82.602-60.201c-3.5-10.5,2.45-21.35,12.25-24.15C70.461,207.146,81.312,212.746,84.462,222.896z"/>
			</g>
		</g>
		<g>
			<path d="M402.369,146.965H269.838c-11.046,0-20-8.954-20-20s8.954-20,20-20h132.531c11.046,0,20,8.954,20,20
				S413.415,146.965,402.369,146.965z"/>
		</g>
		<g>
			<path d="M420,363.705H83c-11.046,0-20-8.954-20-20s8.954-20,20-20h337c11.046,0,20,8.954,20,20S431.046,363.705,420,363.705z"/>
		</g>
		<g>
			<path d="M442.404,291.459H269.838c-11.046,0-20-8.954-20-20s8.954-20,20-20h172.566c11.046,0,20,8.954,20,20
				S453.45,291.459,442.404,291.459z"/>
		</g>
		<g>
			<path d="M442.404,219.212H269.838c-11.046,0-20-8.954-20-20s8.954-20,20-20h172.566c11.046,0,20,8.954,20,20
				S453.45,219.212,442.404,219.212z"/>
		</g>
		<g>
			<path d="M351.637,435.952H148.364c-11.046,0-20-8.954-20-20s8.954-20,20-20h203.273c11.046,0,20,8.954,20,20
				S362.683,435.952,351.637,435.952z"/>
		</g>
	</g>
</g>
</svg>
